HIERARCHY
ROOT Hips
{
 OFFSET 0.000000 0.000000 0.000000
 CHANNELS 6 Xposition Yposition Zposition Yrotation Xrotation Zrotation
 JOINT Chest
 {
  OFFSET 0.000000 9.588913 -0.003946
  CHANNELS 3 Yrotation Xrotation Zrotation
  JOINT Chest2
  {
   OFFSET 0.000000 9.541882 0.008053
   CHANNELS 3 Yrotation Xrotation Zrotation
   JOINT Chest3
   {
    OFFSET 0.000000 9.501360 0.000000
    CHANNELS 3 Yrotation Xrotation Zrotation
    JOINT Chest4
    {
     OFFSET 0.000000 9.491660 0.000000
     CHANNELS 3 Yrotation Xrotation Zrotation
     JOINT Neck
     {
      OFFSET 0.000000 14.331917 0.000000
      CHANNELS 3 Yrotation Xrotation Zrotation
      JOINT Head
      {
       OFFSET 0.000000 8.884799 0.017034
       CHANNELS 3 Yrotation Xrotation Zrotation
       End Site
       {
        OFFSET 0.000000 16.896195 0.008993
       }
      }
     }
     JOINT RightCollar
     {
      OFFSET -2.923010 9.499495 0.000000
      CHANNELS 3 Yrotation Xrotation Zrotation
      JOINT RightShoulder
      {
       OFFSET -13.795216 0.000000 0.000000
       CHANNELS 3 Yrotation Xrotation Zrotation
       JOINT RightElbow
       {
        OFFSET -30.272209 0.000000 0.000000
        CHANNELS 3 Yrotation Xrotation Zrotation
        JOINT RightWrist
        {
         OFFSET -24.478199 0.000000 0.000000
         CHANNELS 3 Yrotation Xrotation Zrotation
         End Site
         {
          OFFSET -18.090752 0.000000 0.000000
         }
        }
       }
      }
     }
     JOINT LeftCollar
     {
      OFFSET 2.923010 9.499495 0.000000
      CHANNELS 3 Yrotation Xrotation Zrotation
      JOINT LeftShoulder
      {
       OFFSET 13.795216 0.000000 0.000000
       CHANNELS 3 Yrotation Xrotation Zrotation
       JOINT LeftElbow
       {
        OFFSET 30.272209 0.000000 0.000000
        CHANNELS 3 Yrotation Xrotation Zrotation
        JOINT LeftWrist
        {
         OFFSET 24.478199 0.000000 0.000000
         CHANNELS 3 Yrotation Xrotation Zrotation
         End Site
         {
          OFFSET 18.090752 0.000000 0.000000
         }
        }
       }
      }
     }
    }
   }
  }
 }
 JOINT RightHip
 {
  OFFSET -7.826875 0.019532 0.001973
  CHANNELS 3 Yrotation Xrotation Zrotation
  JOINT RightKnee
  {
   OFFSET 0.000000 -40.546152 -0.001885
   CHANNELS 3 Yrotation Xrotation Zrotation
   JOINT RightAnkle
   {
    OFFSET 0.000000 -39.417092 -0.003189
    CHANNELS 3 Yrotation Xrotation Zrotation
    JOINT RightToe
    {
     OFFSET 0.000000 -7.579396 17.243563
     CHANNELS 3 Yrotation Xrotation Zrotation
     End Site
     {
      OFFSET 0.000000 -1.500329 6.694466
     }
    }
   }
  }
 }
 JOINT LeftHip
 {
  OFFSET 7.826875 0.019532 0.001973
  CHANNELS 3 Yrotation Xrotation Zrotation
  JOINT LeftKnee
  {
   OFFSET 0.000000 -40.546152 -0.001885
   CHANNELS 3 Yrotation Xrotation Zrotation
   JOINT LeftAnkle
   {
    OFFSET 0.000000 -39.417092 -0.003189
    CHANNELS 3 Yrotation Xrotation Zrotation
    JOINT LeftToe
    {
     OFFSET 0.000000 -7.579396 17.243563
     CHANNELS 3 Yrotation Xrotation Zrotation
     End Site
     {
      OFFSET 0.000000 -1.500329 6.694466
     }
    }
   }
  }
 }
}
MOTION
Frames: 9
Frame Time: 0.008333
0.000000 87.345680 0.000000 0.000000 -5.767889 0.000000 0.000000 11.653876 0.000000 0.000000 -5.885988 0.000000 0.000000 -0.000000 0.000000 0.000000 -0.000000 0.000000 0.000000 12.528808 0.000000 0.000000 0.711711 0.000000 0.000000 -0.000000 0.000000 0.000000 -0.000000 0.000000 2.309063 -0.000000 0.000000 -2.309063 -0.000000 -0.000000 0.000000 -0.000000 0.000000 0.000000 0.000000 0.000000 -2.309063 0.000000 0.000000 2.309063 -0.000000 0.000000 0.000000 8.520374 0.000000 0.000000 1.905768 0.000000 -0.000000 -4.658254 0.000000 0.000000 -0.000000 0.000000 0.000000 8.520374 0.000000 0.000000 1.905768 0.000000 -0.000000 -4.658254 0.000000 0.000000 -0.000000 0.000000
27.240565 88.008148 -7.163642 44.739208 -7.608546 1.294408 0.770877 3.542258 -0.239256 0.437420 2.020030 -0.127037 0.546159 2.525184 -0.156409 0.437420 2.020030 -0.127037 11.019517 21.368304 -2.974359 13.084980 -2.070897 -5.911555 -1.904920 -0.175792 -2.706074 0.246795 -5.140474 87.376004 70.880812 -40.379682 44.861448 26.538311 -28.064294 -13.811389 -8.582946 -0.656077 -0.397780 -12.587144 -15.313227 -88.930604 -31.825997 3.716828 -36.414365 -25.511224 -8.852086 8.036819 -18.004254 8.868179 -14.790637 13.008260 2.426438 -1.958660 13.088540 -8.366377 7.043946 -0.014785 0.003966 0.018419 9.732453 8.640688 10.106886 9.488649 -2.472963 -0.724061 5.242335 1.530162 -7.296086 0.017676 0.060876 -0.003451
27.234769 88.008435 -7.160166 44.733291 -7.619880 1.291928 0.777957 3.549925 -0.237020 0.441334 2.024655 -0.126834 0.551053 2.530966 -0.156128 0.441334 2.024655 -0.126834 11.011722 21.366358 -2.976572 13.076173 -2.074084 -5.912064 -1.924457 -0.173471 -2.702296 0.227319 -5.150379 87.368257 70.873603 -40.388109 44.874594 26.544502 -28.068033 -13.806428 -8.615732 -0.661770 -0.391595 -12.588969 -15.317720 -88.921815 -31.831213 3.711100 -36.425840 -25.513054 -8.840409 8.069526 -18.004590 8.862683 -14.789307 13.019519 2.453315 -1.952848 13.100761 -8.378294 7.028335 -0.013913 0.001764 0.018396 9.728675 8.647179 10.113784 9.488243 -2.463886 -0.719391 5.252026 1.530602 -7.300743 0.018759 0.057885 -0.002702
27.227524 88.008818 -7.156584 44.731269 -7.627844 1.287641 0.787643 3.556389 -0.235033 0.446519 2.028642 -0.126806 0.557534 2.535952 -0.156060 0.446519 2.028642 -0.126806 10.999849 21.366305 -2.976264 13.061770 -2.075747 -5.908631 -1.951094 -0.171573 -2.696682 0.215656 -5.156303 87.359606 70.876725 -40.401195 44.875720 26.549371 -28.070253 -13.805934 -8.658219 -0.665603 -0.381998 -12.589493 -15.326063 -88.917248 -31.831524 3.713672 -36.432792 -25.521633 -8.829382 8.106111 -18.003894 8.856268 -14.783712 13.032483 2.478275 -1.949515 13.108580 -8.388381 7.016048 -0.013345 -0.000743 0.016866 9.720247 8.650834 10.120243 9.486314 -2.458681 -0.713205 5.268386 1.534339 -7.307952 0.020034 0.055602 0.000017
27.219434 88.009339 -7.153318 44.730955 -7.631550 1.284335 0.799580 3.561317 -0.233604 0.453137 2.031823 -0.126889 0.565806 2.539930 -0.156123 0.453137 2.031823 -0.126889 10.983860 21.368082 -2.975039 13.042175 -2.075842 -5.903074 -1.983388 -0.168425 -2.691802 0.209476 -5.162059 87.352381 70.886923 -40.416298 44.867700 26.551494 -28.071765 -13.809842 -8.706166 -0.668571 -0.372002 -12.590576 -15.337768 -88.916626 -31.826197 3.724087 -36.433140 -25.537324 -8.823328 8.145344 -17.999657 8.848605 -14.774466 13.042730 2.501490 -1.946411 13.098954 -8.395511 7.005475 -0.014552 -0.001992 0.014072 9.707764 8.650938 10.125165 9.483049 -2.454834 -0.707425 5.286278 1.539513 -7.316327 0.020370 0.053030 0.003019
27.211149 88.010057 -7.150117 44.731903 -7.633183 1.281988 0.812779 3.565483 -0.232798 0.460508 2.034838 -0.127152 0.575019 2.543702 -0.156407 0.460508 2.034838 -0.127152 10.964975 21.370837 -2.973032 13.018886 -2.075210 -5.895870 -2.017539 -0.164113 -2.687386 0.205063 -5.167490 87.347564 70.901867 -40.430446 44.853835 26.554069 -28.077629 -13.815716 -8.756069 -0.671629 -0.360161 -12.597304 -15.352360 -88.916897 -31.815658 3.733143 -36.423896 -25.556003 -8.822577 8.183790 -17.992774 8.841373 -14.767811 13.050338 2.519686 -1.939961 13.090519 -8.399678 6.993842 -0.015711 -0.003142 0.012005 9.692133 8.649960 10.129505 9.482671 -2.451986 -0.703406 5.300209 1.545739 -7.323192 0.019552 0.049742 0.004453
27.202977 88.010960 -7.146630 44.731670 -7.634128 1.279427 0.826521 3.569518 -0.233163 0.468208 2.037709 -0.127653 0.584643 2.547293 -0.156987 0.468208 2.037709 -0.127653 10.946132 21.374752 -2.969124 12.995143 -2.073334 -5.886508 -2.049489 -0.158264 -2.681205 0.198764 -5.173246 87.343448 70.914428 -40.444656 44.841559 26.555522 -28.086344 -13.819376 -8.804019 -0.675375 -0.343470 -12.611075 -15.369654 -88.915191 -31.798772 3.732564 -36.409030 -25.571621 -8.819633 8.214573 -17.987641 8.835257 -14.763495 13.057411 2.532159 -1.930027 13.085393 -8.400634 6.981060 -0.016753 -0.004063 0.010309 9.680800 8.648694 10.136030 9.489497 -2.449758 -0.701580 5.300585 1.552519 -7.329062 0.017962 0.045737 0.004644
27.195193 88.012000 -7.142565 44.728402 -7.635855 1.276010 0.840532 3.574341 -0.233445 0.476219 2.040511 -0.127797 0.594656 2.550798 -0.157119 0.476219 2.040511 -0.127797 10.927994 21.380967 -2.964356 12.972041 -2.068682 -5.876337 -2.078976 -0.152341 -2.676777 0.188297 -5.181898 87.340391 70.916839 -40.460697 44.838554 26.550480 -28.091652 -13.819590 -8.848288 -0.679790 -0.325333 -12.630389 -15.391154 -88.910943 -31.775739 3.723690 -36.390309 -25.581284 -8.813853 8.229270 -17.988178 8.830217 -14.757807 13.064781 2.542711 -1.919982 13.076411 -8.399566 6.968975 -0.018329 -0.004252 0.007707 9.680218 8.647899 10.145428 9.500724 -2.448195 -0.701818 5.292465 1.559748 -7.335308 0.016693 0.041819 0.005926
27.187672 88.013051 -7.137997 44.723322 -7.637238 1.270940 0.854489 3.579584 -0.232060 0.484240 2.043191 -0.127155 0.604687 2.554150 -0.156268 0.484240 2.043191 -0.127155 10.909417 21.389812 -2.959688 12.948472 -2.060937 -5.866152 -2.107958 -0.148423 -2.678223 0.171925 -5.192808 87.340976 70.909727 -40.474426 44.849076 26.541252 -28.092449 -13.819848 -8.887869 -0.684228 -0.307262 -12.655352 -15.415652 -88.906478 -31.753925 3.712947 -36.363660 -25.584594 -8.811604 8.227877 -17.994772 8.825041 -14.749770 13.072536 2.551230 -1.912949 13.072745 -8.397402 6.958524 -0.019176 -0.004530 0.005133 9.688175 8.646897 10.157053 9.508018 -2.448967 -0.703928 5.290215 1.568136 -7.341512 0.016212 0.038899 0.008936
